<?xml version="1.0" encoding="utf-8"?>
<!-- Generator: Adobe Illustrator 23.0.0, SVG Export Plug-In . SVG Version: 6.00 Build 0)  -->
<svg version="1.1" id="Layer_1" xmlns="http://www.w3.org/2000/svg" xmlns:xlink="http://www.w3.org/1999/xlink" x="0px" y="0px"
	 viewBox="0 0 488.5 493.5" style="enable-background:new 0 0 488.5 493.5;" xml:space="preserve">
<style type="text/css">
	.st0{fill:#DFE5E4;}
	.st1{fill:#CCCCCC;}
	.st2{fill:#FA8F50;}
	.st3{fill:#E25E24;}
	.st4{fill:#FFFFFF;}
	.st5{fill:#870606;}
	.st6{fill:#F9B253;}
	.st7{fill:#DD8C2C;}
	.st8{fill:#00A387;}
	.st9{fill:#028E73;}
	.st10{fill:#02997C;}
	.st11{fill:#444444;}
	.st12{fill:#514F4F;}
	.st13{fill:#333333;}
	.st14{fill:#A1110D;}
	.st15{fill:#D6D6D6;}
	.st16{fill:#B01611;}
	.st17{fill:#171B1F;}
	.st18{fill:#686868;}
</style>
<g>
	<g>
		<path class="st0" d="M474.4,991c25.8-0.7,48.3-17,61.8-41.4c-2.8-2-6.2-3.2-9.9-3.2c-8,0-14.7,5.4-16.6,12.8
			c-4.5-3.3-10.1-5.3-16.2-5.3c-13.8,0-25.3,10.2-27.2,23.6c-1.2-0.6-2.6-1-4-1c-1.9,0-3.7,0.6-5.2,1.6c-1.5-7.1-7.8-12.4-15.3-12.4
			c-0.7,0-1.3,0.1-2,0.1c-2.9-7-9.8-12-17.9-12c-3.4,0-6.6,0.9-9.4,2.4C427.4,978.1,449.8,991.7,474.4,991z"/>
	</g>
</g>
<g>
	<g>
		<path class="st1" d="M646.8,992.4c5.3,0.1,10.5-0.4,15.5-1.5c0.1-0.1,0.2-0.3,0.3-0.4c0.1,0.1,0.2,0.2,0.2,0.3
			c17.8-4.1,33.6-15.7,45.1-32c-3.4-3-7.9-4.8-12.8-4.8c-8.1,0-15,5-17.9,12c-0.7-0.1-1.3-0.1-2-0.1c-7.5,0-13.8,5.3-15.3,12.4
			c-1.5-1-3.3-1.6-5.2-1.6c-1.5,0-2.8,0.3-4,1c-1.9-13.3-13.3-23.6-27.2-23.6c-6.1,0-11.7,2-16.2,5.3c-1.9-7.4-8.6-12.8-16.6-12.8
			c-2.6,0-5.1,0.6-7.4,1.7C596.7,974.2,619.9,991.7,646.8,992.4z"/>
	</g>
</g>
<path class="st2" d="M556,951.7c0,54.8-21.6,105.5-51.1,136.9c-1.9,2-3.1,3.4-4.9,5.1c18.8,7.4,39.3,11.5,60.8,11.5l0.2-167h-4.8
	C556.3,942.6,556,946.7,556,951.7z"/>
<path class="st3" d="M616.2,1088.6c-29.4-31.5-51.1-82.2-51.1-136.9c0-5-0.3-9-0.2-13.5h-4.8l0.2,167c21.5,0,42-4.1,60.8-11.5
	C619.3,1092,618.1,1090.7,616.2,1088.6z"/>
<circle class="st0" cx="937.3" cy="1038.5" r="166.2"/>
<g>
	<g>
		<g>
			<path class="st4" d="M244.2,478.5c-62.6,0-121.4-24.4-165.6-68.6C34.4,365.6,10,306.8,10,244.2c0-62.6,24.4-121.4,68.6-165.6
				S181.7,10,244.2,10s121.4,24.4,165.6,68.6s68.6,103.1,68.6,165.6c0,62.6-24.4,121.4-68.6,165.6
				C365.6,454.1,306.8,478.5,244.2,478.5z"/>
		</g>
		<g>
			<path class="st5" d="M244.2,20c123.8,0,224.2,100.4,224.2,224.2S368.1,468.5,244.2,468.5S20,368.1,20,244.2S120.4,20,244.2,20
				 M244.2,0c-33,0-64.9,6.5-95.1,19.2C120.1,31.5,94,49.1,71.5,71.5c-22.4,22.4-40,48.5-52.3,77.6C6.5,179.3,0,211.3,0,244.2
				s6.5,64.9,19.2,95.1c12.3,29.1,29.9,55.2,52.3,77.6c22.4,22.4,48.5,40,77.6,52.3c30.1,12.7,62.1,19.2,95.1,19.2
				s64.9-6.5,95.1-19.2c29.1-12.3,55.2-29.9,77.6-52.3c22.4-22.4,40-48.5,52.3-77.6c12.7-30.1,19.2-62.1,19.2-95.1
				s-6.5-64.9-19.2-95.1C457,120.1,439.4,94,416.9,71.5c-22.4-22.4-48.5-40-77.6-52.3C309.2,6.5,277.2,0,244.2,0L244.2,0z"/>
		</g>
	</g>
	<g>
		<g>
			<path class="st6" d="M81.8,225.2c-1.1,7.5-1.6,15.2-1.6,23c0,90.5,73.4,164,164,164s164-73.4,164-164c0-7.8-0.6-15.5-1.6-23H81.8
				z"/>
		</g>
		<g>
			<path class="st7" d="M244.3,412.2c91.5,0,165.7-74.2,165.7-165.7c0-7.9-0.6-15.7-1.6-23.3H245.1L244.3,412.2z"/>
		</g>
		<g>
			<path class="st8" d="M245.1,79.2L245.1,79.2c-0.1,0-0.2,0-0.2,0c-0.1,0-0.2,0-0.2,0v0c-91.2,0.3-165,74.3-165,165.5
				c0,21.2,4,41.6,11.3,60.2c14.8,26.6,39.7,43.8,67.5,43c43.2-1.2,77-45.3,76.1-98.8h10.1h0.5h9c-1.1,53.7,32.8,98,76.1,99.2
				c30.1,0.8,56.8-19.3,70.9-49.7c5.8-16.9,9-35.1,9-54C410.1,153.5,336.2,79.5,245.1,79.2z"/>
		</g>
		<g>
			<g>
				<path class="st9" d="M376.1,144.2c-30.2-39.4-77.6-64.8-131-65v0c-0.1,0-0.2,0-0.2,0c-0.1,0-0.2,0-0.2,0v0
					c-53.4,0.2-100.8,25.6-131,65H376.1z"/>
			</g>
		</g>
		<g>
			<path class="st10" d="M80,232.2h329.6c-2.5-33-14.6-63.2-33.5-88H113.6C94.6,169,82.5,199.2,80,232.2z"/>
		</g>
		<g>
			<path class="st4" d="M154.1,348.4c24.9,0.7,47.5-13,62.5-35c-2.7-1.3-5.7-2.1-8.9-2.1c-8.5,0-15.7,5.2-18.8,12.6
				c-0.7-0.1-1.4-0.2-2.1-0.2c-7.9,0-14.4,5.6-16,13c-1.5-1.1-3.4-1.7-5.4-1.7c-1.5,0-3,0.4-4.2,1c-2-14-14-24.7-28.5-24.7
				c-6.4,0-12.2,2.1-17,5.5c-2-7.7-9.1-13.4-17.4-13.4c-2.6,0-5.2,0.6-7.4,1.6C104.4,330.6,127.5,347.7,154.1,348.4z"/>
		</g>
		<g>
			<path class="st0" d="M398.1,304.8c-2.6-1.5-5.7-2.4-8.9-2.4c-8.4,0-15.4,5.7-17.4,13.4c-4.8-3.5-10.6-5.5-17-5.5
				c-14.5,0-26.5,10.7-28.5,24.7c-1.3-0.6-2.7-1-4.2-1c-2,0-3.9,0.6-5.4,1.7c-1.6-7.4-8.1-13-16-13c-0.7,0-1.4,0.1-2.1,0.2
				c-3-7.4-10.3-12.6-18.8-12.6c-3.2,0-6.2,0.7-8.9,2.1c15.1,22.9,38.1,37.3,63.6,36.5C361.3,348.2,384.6,330.8,398.1,304.8z"/>
		</g>
		<g>
			<path class="st2" d="M240,258.7c0,54.8-21.6,105.5-51.1,136.9c-1.9,2-3.1,3.4-4.9,5.1c18.8,7.4,39.3,11.5,60.8,11.5l0.2-167h-4.8
				C240.3,249.6,240,253.7,240,258.7z"/>
		</g>
		<g>
			<path class="st3" d="M300.2,395.6c-29.4-31.5-51.1-82.2-51.1-136.9c0-5-0.3-9-0.2-13.5h-4.8l0.2,167c21.5,0,42-4.1,60.8-11.5
				C303.3,399,302.1,397.7,300.2,395.6z"/>
		</g>
		<g>
			<g>
				<path class="st11" d="M245,108.8c-0.8-0.7-1.9-0.7-2.7,0c-4.2,4.3-20.2,21.4-23.2,50.4c0,0,54,23,50-2
					C268.6,154,265.1,127.2,245,108.8z"/>
			</g>
			<g>
				<g>
					<path class="st12" d="M258.4,248.5c0,0-0.1,0.1-0.1,0.1c-5.1,2-9.9,2.7-14.2,2.6v8.4c3.3,0,7-0.6,10.8-2.3c0,0,0.1,0,0.1-0.1
						C256.5,254.5,258.6,248.1,258.4,248.5z"/>
				</g>
			</g>
			<g>
				<path class="st13" d="M264.1,207.3l23.7,38.3c1.2,1.9,1.8,4.1,1.8,6.4l0,43c0,1.9-2.9,2.5-3.9,0.8l0,0l-26.6-47
					c-1.9-3.3-2.1-7.2-0.6-10.7l8.4-20.3C267.5,216.3,263.3,205.9,264.1,207.3z"/>
			</g>
			<g>
				<path class="st11" d="M222.5,211.8l-21.5,34.7c-1.2,1.9-1.8,4.1-1.8,6.4l0,43c0,1.9,2.9,2.5,3.9,0.8v0l26.7-47
					c1.9-3.3,2.1-7.2,0.7-10.7l-8.4-20.3C221.4,217.3,223.4,210.4,222.5,211.8z"/>
			</g>
			<g>
				<path class="st14" d="M219.9,153.3c0-0.1,0.1-0.1,0.1-0.1c0,0.2-0.1,0.4-0.1,0.6c0.9,0.4,1.8,0.7,2.8,1.1
					c0.3,0.1,0.5,0.2,0.8,0.3c0.7,0.3,1.5,0.5,2.2,0.7c0.2,0.1,0.4,0.1,0.6,0.2c0.9,0.3,1.8,0.5,2.7,0.7c0.2,0,0.3,0.1,0.5,0.1
					c0.8,0.2,1.5,0.3,2.3,0.5c0.2,0,0.4,0.1,0.6,0.1c1.9,0.3,3.7,0.5,5.5,0.6c0.1,0,0.3,0,0.4,0c0.9,0.1,1.8,0.1,2.6,0.1
					c0,0,0,0,0,0c0.9,0,1.9,0,2.8,0c0,0,0,0,0,0c0.2,0,0.3,0,0.5,0v93.1c-4.3,0.1-9.1-0.6-14.2-2.6c0,0-0.1-0.1-0.1-0.1
					c-7.6-12.8-12.8-35.7-12.8-61.9C216.9,174.6,218,163.3,219.9,153.3z"/>
			</g>
			<g>
				<path class="st13" d="M269.1,157.2c-0.5-3.2-5-32-24-48.4c-0.3-0.3-0.6-0.4-1-0.5v59C257.6,170.2,271.1,170.2,269.1,157.2z"/>
			</g>
			<g>
				<path class="st5" d="M268.3,153.3c0-0.1-0.1-0.1-0.1-0.1c0,0.2,0.1,0.4,0.1,0.6c-0.9,0.4-1.8,0.7-2.8,1.1
					c-0.3,0.1-0.5,0.2-0.8,0.3c-0.7,0.3-1.5,0.5-2.2,0.7c-0.2,0.1-0.4,0.1-0.6,0.2c-0.9,0.3-1.8,0.5-2.7,0.7c-0.2,0-0.3,0.1-0.5,0.1
					c-0.8,0.2-1.5,0.3-2.3,0.5c-0.2,0-0.4,0.1-0.6,0.1c-1.9,0.3-3.7,0.5-5.5,0.6c-0.1,0-0.3,0-0.4,0c-0.9,0.1-1.8,0.1-2.6,0.1
					c0,0,0,0,0,0c-0.9,0-1.9,0-2.8,0c0,0,0,0,0,0c-0.2,0-0.3,0-0.5,0v93.1c4.3,0.1,9.1-0.6,14.2-2.6c0,0,0.1-0.1,0.1-0.1
					c7.6-12.8,12.8-35.7,12.8-61.9C271.2,174.6,270.2,163.3,268.3,153.3z"/>
			</g>
			<g>
				<circle class="st15" cx="244" cy="181.2" r="4.5"/>
			</g>
			<g>
				<circle class="st15" cx="244" cy="196.2" r="4.5"/>
			</g>
			<g>
				<circle class="st15" cx="244" cy="211.2" r="4.5"/>
			</g>
		</g>
		<g>
			<g>
				<circle class="st4" cx="142.5" cy="185.7" r="2"/>
			</g>
			<g>
				<circle class="st4" cx="328.5" cy="247.7" r="2"/>
			</g>
			<g>
				<circle class="st4" cx="360.5" cy="265.7" r="1"/>
			</g>
			<g>
				<circle class="st4" cx="330.5" cy="168.7" r="2"/>
			</g>
			<g>
				<circle class="st4" cx="123.5" cy="198.7" r="1"/>
			</g>
			<g>
				<circle class="st4" cx="113.5" cy="268.7" r="1"/>
			</g>
			<g>
				<circle class="st4" cx="173.5" cy="258.7" r="1"/>
			</g>
			<g>
				<circle class="st4" cx="203.5" cy="118.7" r="1"/>
			</g>
			<g>
				<circle class="st4" cx="163.5" cy="118.7" r="1"/>
			</g>
			<g>
				<circle class="st4" cx="303.5" cy="188.7" r="1"/>
			</g>
			<g>
				<circle class="st4" cx="163.5" cy="248.7" r="1"/>
			</g>
			<g>
				<circle class="st4" cx="313.5" cy="118.7" r="1"/>
			</g>
			<g>
				<circle class="st4" cx="376.5" cy="205.7" r="1"/>
			</g>
		</g>
	</g>
	<g>
		<path d="M69.6,310.1c0.8,2,1.6,4.1,1.1,6.6c-0.5,2.5-2.2,4.8-8,7.1c-5.6,2.2-8.5,1.9-10.7,0.3c-2.1-1.5-3-3.7-3.7-5.5l-2.1-5.3
			l21.2-8.5L69.6,310.1z M52.1,316.5l0.4,1c0.2,0.6,0.6,1.5,1.4,2.1c1.3,0.8,3.3,0.5,6.8-0.9c3.4-1.3,5.2-2.5,5.5-4.1
			c0.2-1-0.1-1.8-0.4-2.4l-0.4-1L52.1,316.5z"/>
		<path d="M83.1,338.2l-3.8,2.1l-3.2-5.8l-4.1,2.3l2.6,4.8l-3.8,2.1l-2.6-4.8l-4.7,2.6l3.3,6l-3.8,2.1l-5.8-10.6l20-11L83.1,338.2z"
			/>
		<path d="M90.7,357.8l-0.1-0.2c0,0-0.6-2.1-1.6-3.4c-0.9-1.2-1.8-1.4-2.7-0.8c-1.4,1-1.2,2.8-1.2,5c-0.1,2.4-0.5,4.7-3.3,6.7
			c-3.7,2.6-7.2,1.7-10-2.4c-1.5-2.1-2.1-4.1-2.1-4.1l3.5-2.4l0.1,0.2c0,0,0.7,2.4,1.7,3.8c0.9,1.3,2,1.6,3.1,0.9
			c1.6-1.1,1.3-3.4,1.5-5.8c0.1-2,0.5-4.1,3.1-6c3.4-2.4,6.8-1.7,9.5,2.2c1.4,1.9,2,3.9,2,3.9L90.7,357.8z"/>
		<path d="M104.3,367.1L86.9,382l-3.4-4l17.3-14.9L104.3,367.1z"/>
		<path d="M114.7,392.2l-8.2,8.7c0,0-2.6-1.2-4.9-3.4c-5-4.7-4-9.5,1-14.8c5.2-5.5,10.3-6.7,15.7-1.6c1.8,1.7,2.9,3.4,2.9,3.4
			l-2.9,3.1l-0.2-0.1c0,0-1.1-1.8-2.5-3.1c-2.9-2.7-5.2-1.9-8.8,1.9c-3.5,3.8-4.5,6.4-2.4,8.3c0.4,0.4,0.9,0.7,0.9,0.7l3.1-3.3
			l-1.7-1.6l2.9-3.1L114.7,392.2z"/>
		<path d="M133.2,393.7l-2.7,14.2l7.7-10.7l3.7,2.6l-13.3,18.6l-3.8-2.8l2.5-14.9l-7.9,11l-3.7-2.6l13.3-18.6L133.2,393.7z"/>
		<path class="st16" d="M178,418.1c2,0.7,4.1,1.5,5.7,3.6c1.5,2,2.1,4.8,0,10.6c-2.1,5.6-4.3,7.6-6.9,8.2c-2.5,0.6-4.7-0.2-6.6-0.9
			l-5.4-2l7.8-21.5L178,418.1z M171.2,435.5l1,0.4c0.6,0.2,1.6,0.6,2.5,0.3c1.5-0.4,2.6-2.1,3.9-5.7c1.3-3.4,1.6-5.5,0.6-6.8
			c-0.6-0.8-1.5-1.1-2-1.3l-1-0.4L171.2,435.5z"/>
		<path class="st16" d="M208,426.7l-1,4.2l-6.4-1.5l-1,4.6l5.4,1.2l-1,4.2l-5.3-1.2l-1.2,5.2l6.7,1.5l-1,4.2l-11.8-2.7l5.1-22.3
			L208,426.7z"/>
		<path class="st16" d="M221.3,428.8l1.6,17.1l5.3-16.3l4.6,0.5l-8.1,22.1l-5.7-0.6l-3.2-23.3L221.3,428.8z"/>
		<path class="st16" d="M253,430l0.1,4.3l-6.6,0.1l0.1,4.7l5.5-0.1l0.1,4.3l-5.5,0.1l0.1,5.3l6.9-0.1l0.1,4.3l-12.1,0.2l-0.4-22.9
			L253,430z"/>
		<path class="st16" d="M267.8,428.6l2.3,18.3l5.6-0.7l0.6,4.4l-10.8,1.4l-2.9-22.7L267.8,428.6z"/>
		<path class="st16" d="M300.1,442.8c-0.9,2.1-3,3.6-5.7,4.3c-2.8,0.7-5.2,0.3-7-1.2c-2-1.6-3.2-4.5-4.1-8.2c-1-4.1-1.2-7-0.2-9.3
			c1-2.2,2.9-3.6,5.7-4.3c2.7-0.7,5.2-0.3,7,1.2c2,1.6,3.1,4.4,4.1,8C300.9,437.5,301.1,440.6,300.1,442.8z M295.3,441.2
			c0.3-1.2,0.1-2.7-0.8-6.2c-0.9-3.5-1.4-5-2.2-5.9c-0.6-0.7-1.4-1-2.6-0.8c-1.1,0.3-1.6,0.9-1.9,1.9c-0.3,1.2-0.1,2.7,0.8,6.2
			c0.9,3.5,1.4,5,2.2,5.9c0.6,0.7,1.4,1,2.5,0.8C294.5,442.8,295.1,442.1,295.3,441.2z"/>
		<path class="st16" d="M311.7,417.3c1.3-0.5,3.2-1.2,5.2-0.9c2.2,0.3,4.2,1.9,5.5,5.3c1.4,3.4,1,6-0.4,7.8
			c-1.1,1.5-2.9,2.4-4.4,2.9l-0.9,0.4l2.5,6.2l-4.9,1.9l-8.4-21.3L311.7,417.3z M315.2,428.8l0.9-0.4c0.5-0.2,1.2-0.5,1.5-1.1
			c0.4-0.8,0.3-2-0.3-3.5c-0.7-1.7-1.4-2.6-2.2-2.8c-0.7-0.2-1.3,0.1-1.8,0.3l-0.9,0.4L315.2,428.8z"/>
		<path class="st17" d="M353.6,394.3c1.7-1.3,3.5-2.6,6.1-2.8c2.5-0.2,5.2,0.9,8.9,5.9c3.6,4.8,4,7.8,3.1,10.3
			c-0.9,2.4-2.8,3.8-4.4,5l-4.6,3.4l-13.6-18.3L353.6,394.3z M364.4,409.5l0.8-0.6c0.5-0.4,1.3-1,1.6-1.9c0.4-1.5-0.4-3.3-2.6-6.4
			c-2.2-2.9-3.7-4.3-5.4-4.3c-1,0-1.7,0.6-2.2,1l-0.8,0.6L364.4,409.5z"/>
		<path class="st17" d="M377.3,374l3,3.1l-4.8,4.5l3.2,3.4l4-3.8l3,3.1l-4,3.8l3.7,3.9l5-4.7l3,3.1l-8.8,8.3l-15.8-16.5L377.3,374z"
			/>
		<path class="st17" d="M387.8,362.2c0.9-1.1,2.3-2.6,4.1-3.3c2.1-0.8,4.6-0.4,7.4,2c2.9,2.4,3.7,4.8,3.4,7
			c-0.3,1.9-1.4,3.5-2.4,4.7l-0.6,0.8l5.1,4.2l-3.4,4.1L383.9,367L387.8,362.2z M396.5,370.6l0.6-0.7c0.3-0.4,0.8-1,0.8-1.7
			c0-0.9-0.7-1.9-2-2.9c-1.4-1.2-2.5-1.6-3.3-1.4c-0.6,0.2-1.1,0.7-1.5,1.1l-0.6,0.7L396.5,370.6z"/>
		<path class="st17" d="M401.3,343.9l15.4,10l3.1-4.7l3.7,2.4l-5.9,9.1l-19.2-12.5L401.3,343.9z"/>
		<path class="st17" d="M433,328.5c1,2.1,0.8,4.6-0.4,7.1c-1.3,2.5-3.1,4.1-5.4,4.6c-2.5,0.5-5.5-0.5-8.9-2.2
			c-3.8-1.9-6.1-3.7-7.2-5.9c-1-2.1-0.9-4.6,0.4-7.1c1.3-2.5,3.1-4.2,5.4-4.6c2.5-0.5,5.4,0.4,8.7,2.1
			C429.5,324.5,432,326.3,433,328.5z M428.7,331.1c-0.7-1-2-1.8-5.3-3.4c-3.2-1.6-4.7-2.1-5.9-2.1c-1,0-1.7,0.4-2.2,1.4
			c-0.5,1-0.3,1.9,0.2,2.6c0.7,1,2,1.8,5.3,3.4c3.2,1.6,4.7,2.1,5.9,2.1c1,0,1.7-0.4,2.2-1.4C429.4,332.7,429.3,331.9,428.7,331.1z"
			/>
		<path class="st17" d="M420.2,305.8l9.4,0.1l-7.4-5.7l1.6-4.5l11.8,10.1l8,2.8l-1.7,5l-7.9-2.7l-15.6,0.6L420.2,305.8z"/>
	</g>
	<g>
		<g id="XMLID_4_">
			<g id="XMLID_6_">
				<path class="st17" d="M422.5,229c0.4,1.2,1.2,2.7,2.3,4.4c2.2,3.4,5.7,7.5,9.7,11.5s8.1,7.4,11.5,9.7c1.7,1.1,3.2,1.9,4.4,2.3
					c1.7,0.6,3,0.5,3.9-0.4c0.9-0.9,1-2.2,0.4-3.9c-0.2-0.6-0.5-1.2-0.8-1.9c-0.4-0.8-0.9-1.6-1.5-2.5c-0.1-0.2-0.2-0.4-0.4-0.5
					c-0.5,1-1.1,1.9-1.8,2.8c0.3,0.5,0.6,1,0.8,1.4c0.6,1.2,0.9,2,1,2.4c-0.7-0.1-2.4-0.8-5.2-2.7c-0.2-0.2-0.5-0.3-0.7-0.5
					c0.5-0.4,1-0.8,1.4-1.2c4.9-4.9,4.9-13,0-17.9c-4.9-4.9-13-4.9-17.9,0c-0.5,0.4-0.9,0.9-1.2,1.4c-0.2-0.2-0.3-0.5-0.5-0.7
					c-2-2.8-2.6-4.4-2.7-5.2c0.5,0.1,1.6,0.5,3.2,1.5c0.2,0.1,0.4,0.2,0.6,0.4c0.9-0.7,1.8-1.3,2.8-1.8c-0.2-0.1-0.4-0.2-0.5-0.4
					c-0.6-0.4-1.3-0.8-1.9-1.1c-1-0.5-1.8-0.9-2.6-1.2c-1.7-0.6-3-0.5-3.9,0.4C422,225.9,421.9,227.2,422.5,229z"/>
			</g>
			<g id="XMLID_5_">
				<path class="st17" d="M426,239.1c-0.5,3.8,0.7,7.7,3.6,10.7c2.9,2.9,6.9,4.1,10.7,3.6c-2.4-1.9-5-4.2-7.5-6.8
					C430.2,244.1,427.9,241.5,426,239.1z"/>
			</g>
		</g>
	</g>
	<g>
		<g id="XMLID_1_">
			<g id="XMLID_3_">
				<path class="st17" d="M65.3,225.1c-0.9-0.9-2.2-1-3.9-0.4c-0.8,0.3-1.6,0.7-2.6,1.2c-0.6,0.3-1.2,0.7-1.9,1.1
					c-0.2,0.1-0.3,0.2-0.5,0.4c1,0.5,1.9,1.1,2.8,1.8c0.2-0.1,0.4-0.2,0.6-0.4c1.6-1,2.7-1.4,3.2-1.5c-0.1,0.7-0.8,2.4-2.7,5.2
					c-0.2,0.2-0.3,0.5-0.5,0.7c-0.4-0.5-0.8-1-1.2-1.4c-4.9-4.9-13-4.9-17.9,0c-4.9,4.9-4.9,13,0,17.9c0.5,0.5,0.9,0.9,1.4,1.2
					c-0.2,0.2-0.5,0.3-0.7,0.5c-2.8,1.9-4.4,2.6-5.2,2.7c0.1-0.4,0.4-1.2,1-2.4c0.2-0.4,0.5-0.9,0.8-1.4c-0.7-0.9-1.3-1.8-1.8-2.8
					c-0.1,0.2-0.2,0.4-0.4,0.5c-0.6,0.9-1.1,1.7-1.5,2.5c-0.4,0.7-0.6,1.4-0.8,1.9c-0.6,1.7-0.5,3,0.4,3.9c0.9,0.9,2.2,1,3.9,0.4
					c1.2-0.4,2.7-1.2,4.4-2.3c3.4-2.2,7.5-5.7,11.5-9.7s7.4-8.1,9.7-11.5c1.1-1.7,1.9-3.2,2.3-4.4C66.3,227.2,66.1,225.9,65.3,225.1
					z"/>
			</g>
			<g id="XMLID_2_">
				<path class="st17" d="M62.1,239.1c0.5,3.8-0.7,7.7-3.6,10.7c-2.9,2.9-6.9,4.1-10.7,3.6c2.4-1.9,5-4.2,7.5-6.8
					C57.9,244.1,60.2,241.5,62.1,239.1z"/>
			</g>
		</g>
	</g>
	<g>
		<path class="st14" d="M73.6,165.9l-1.1,2.4l6.5,3.1l-4.1,8.8l-26-12.1l5.8-12.5c1.1-2.4,2.5-4.3,4.1-5.7c1.6-1.4,3.4-2.3,5.3-2.5
			c1.9-0.3,3.9,0.1,5.9,1c1.9,0.9,3.3,2,4.3,3.5c1,1.5,1.5,3.2,1.6,5.2l10.6-1.7l-4.4,9.4L73.6,165.9z M63.3,156.9
			c-0.8,0.3-1.5,1.1-2,2.3l-1.5,3.2l6.1,2.8l1.5-3.2c0.6-1.2,0.7-2.2,0.4-3c-0.3-0.8-0.9-1.5-1.8-1.9
			C65,156.6,64.1,156.6,63.3,156.9z"/>
		<path class="st14" d="M94.7,140.7c-2.5,1.2-5.1,1.6-7.8,1.3c-2.7-0.3-5.1-1.3-7.4-3.1c-2.3-1.8-3.9-3.9-4.9-6.4
			c-1-2.5-1.2-5.1-0.7-7.8s1.7-5.3,3.5-7.8c1.9-2.4,4.1-4.3,6.6-5.4c2.5-1.2,5.1-1.6,7.8-1.3s5.1,1.3,7.4,3.1s3.9,3.9,4.8,6.4
			c1,2.5,1.2,5.1,0.7,7.8c-0.5,2.7-1.7,5.3-3.6,7.8S97.2,139.5,94.7,140.7z M96.4,127.4c0.1-1.1-0.1-2.2-0.6-3.4s-1.3-2.1-2.5-3
			c-1.1-0.9-2.3-1.4-3.5-1.6c-1.2-0.2-2.3-0.1-3.4,0.3c-1.1,0.4-2,1.1-2.7,2c-0.7,1-1.2,2-1.3,3.1c-0.1,1.1,0.1,2.2,0.6,3.4
			c0.5,1.1,1.3,2.1,2.5,3c1.1,0.9,2.3,1.4,3.5,1.6c1.2,0.2,2.3,0.1,3.4-0.3c1.1-0.4,2-1.1,2.7-2C95.8,129.6,96.3,128.5,96.4,127.4z"
			/>
		<path class="st14" d="M122.3,109.6c-2.7,0.6-5.3,0.5-7.8-0.4c-2.5-0.9-4.7-2.4-6.6-4.6c-1.9-2.2-3-4.6-3.4-7.3
			c-0.4-2.6-0.1-5.2,1-7.8c1-2.5,2.7-4.8,5.1-6.7c2.1-1.8,4.4-3,6.7-3.7c2.3-0.7,4.6-0.7,6.9-0.2l-1.2,8.1c-2.8-0.6-5.1-0.1-7,1.5
			c-1.5,1.3-2.4,2.8-2.5,4.6c-0.1,1.8,0.5,3.5,1.9,5.2c1.4,1.7,3,2.6,4.8,2.8c1.8,0.2,3.4-0.3,5-1.6c1.8-1.5,2.7-3.7,2.6-6.6
			l8.2,0.3c0.1,2.3-0.4,4.6-1.4,6.7c-1,2.2-2.6,4.1-4.8,5.9C127.5,107.8,125,109.1,122.3,109.6z"/>
		<path class="st14" d="M153.2,77.9l-0.8,3.2l3.3,6.3l-8.4,4.5l-13.5-25.3l8.4-4.5l4.9,9.2l3.4-13.6l9.3-5l-4.2,16.5l18.2,8.5
			l-9.9,5.3L153.2,77.9z"/>
		<path class="st14" d="M202.4,61.3l2.1,7L181.6,75l-8.2-27.5l22.4-6.6l2.1,7l-13.2,3.9l1,3.2l11.6-3.5l2,6.7l-11.6,3.5l1.1,3.6
			L202.4,61.3z"/>
		<path class="st14" d="M219.1,44.6l-8.4,0.8L210,38l26.4-2.6l0.7,7.5l-8.4,0.8l2.1,21.1l-9.6,1L219.1,44.6z"/>
		<path class="st14" d="M273.9,66.5l1.4-13l-7.4,9.7l-4.2-0.5l-5-10.7l-1.5,12.5l-8.8-1l3.3-28.5l7.9,0.9l7.5,16.3L278,38.1l7.9,0.9
			l-3.3,28.5L273.9,66.5z"/>
		<path class="st14" d="M313.7,72.6l-10.2-3.8l-3.5,4l-9.2-3.4l21.7-22.6l8.9,3.3l1.9,31.3l-9.4-3.5L313.7,72.6z M313.6,65.1
			l-0.1-7.7l-5.1,5.8L313.6,65.1z"/>
		<path class="st14" d="M345.5,83.8l-3.1,0.9l-3.8,6l-8-5.1l15.4-24.2l8,5.1l-5.6,8.8l13.6-3.7l8.9,5.7l-16.5,4.5l1.5,20l-9.4-6
			L345.5,83.8z"/>
		<path class="st14" d="M384.2,118.5l-5.1,5.2l-17.2-16.6l19.9-20.6l16.8,16.2l-5.1,5.2l-9.9-9.6l-2.3,2.4l8.7,8.4l-4.8,5l-8.7-8.4
			l-2.6,2.7L384.2,118.5z"/>
		<path class="st14" d="M398.9,137.8l-1.5-2.2l-5.9,4.1l-5.5-8l23.6-16.3l7.9,11.4c1.5,2.2,2.5,4.3,2.9,6.4c0.4,2.1,0.2,4.1-0.5,5.9
			c-0.7,1.8-2,3.3-3.8,4.6c-1.7,1.2-3.4,1.8-5.2,1.9c-1.8,0.1-3.6-0.3-5.3-1.2l-3.9,10l-5.9-8.5L398.9,137.8z M411.9,133.5
			c0.1-0.9-0.2-1.9-1-2.9l-2-2.9l-5.5,3.8l2,2.9c0.7,1.1,1.5,1.7,2.4,1.9c0.9,0.2,1.7,0,2.6-0.6
			C411.3,135.1,411.8,134.4,411.9,133.5z"/>
		<path class="st14" d="M407.8,166.7c-0.4-2.3-0.5-4.3-0.2-6l7.7,0.1c-0.2,1.6-0.2,3.2,0.1,5c0.2,1.7,0.7,3.3,1.3,4.8
			c0.5,1.2,1,2.1,1.5,2.5c0.5,0.4,0.9,0.5,1.4,0.3c0.6-0.2,0.8-0.8,0.8-1.6c0-0.8-0.2-2.1-0.6-3.8c-0.5-2.2-0.7-4.1-0.8-5.7
			c-0.1-1.6,0.2-3.1,0.9-4.6c0.7-1.5,2-2.6,3.9-3.5c1.7-0.7,3.4-0.9,5.1-0.6s3.4,1.3,5,2.8s2.9,3.6,4.1,6.2c0.8,1.8,1.3,3.7,1.7,5.6
			c0.4,1.9,0.5,3.7,0.3,5.4l-7.6,0.1c0.2-3.1-0.2-5.9-1.2-8.2c-1-2.3-2-3.2-3.1-2.7c-0.5,0.2-0.8,0.7-0.7,1.5s0.2,2,0.6,3.7
			c0.5,2.2,0.8,4.1,0.9,5.6c0.1,1.6-0.2,3.1-0.8,4.6s-2,2.7-3.9,3.5c-1.7,0.7-3.4,0.9-5.1,0.5c-1.7-0.3-3.4-1.3-5-2.8
			c-1.6-1.5-2.9-3.6-4.1-6.2C408.9,171.2,408.2,169,407.8,166.7z"/>
	</g>
	<g>
		<polygon points="146.3,414.9 147.6,419.5 144.6,423.3 149.4,423.4 152,427.5 153.7,422.9 158.3,421.7 154.5,418.7 154.8,413.9 
			150.8,416.6 		"/>
	</g>
	<g>
		<polygon points="343.6,411.9 342.3,416.5 345.3,420.3 340.5,420.4 337.9,424.5 336.3,419.9 331.6,418.7 335.4,415.7 335.1,410.9 
			339.1,413.6 		"/>
	</g>
</g>
<g>
	<g>
		<path class="st18" d="M229.7,248.5c0,0,0.1,0.1,0.1,0.1c5.1,2,9.9,2.7,14.2,2.6v8.4c-3.3,0-7-0.6-10.8-2.3c0,0-0.1,0-0.1-0.1
			C231.7,254.5,229.5,248.1,229.7,248.5z"/>
	</g>
</g>
</svg>
